<?xml version="1.0" encoding="utf-8"?>
<!-- Generator: Adobe Illustrator 23.0.6, SVG Export Plug-In . SVG Version: 6.00 Build 0)  -->
<svg version="1.1" id="Layer_1" xmlns="http://www.w3.org/2000/svg" xmlns:xlink="http://www.w3.org/1999/xlink" x="0px" y="0px"
	 viewBox="0 0 860 16.2" style="enable-background:new 0 0 860 16.2;" xml:space="preserve">
<style type="text/css">
	.st0{clip-path:url(#SVGID_2_);}
	.st1{fill:none;stroke:#666666;stroke-miterlimit:10;}
</style>
<g>
	<g>
		<g>
			<g>
				<defs>
					<polygon id="SVGID_1_" points="860,5.2 0,16.2 0,0 860,0 					"/>
				</defs>
				<clipPath id="SVGID_2_">
					<use xlink:href="#SVGID_1_"  style="overflow:visible;"/>
				</clipPath>
				<g class="st0">
					<line class="st1" x1="2.1" y1="-1.1" x2="-16.2" y2="17.3"/>
					<line class="st1" x1="8.1" y1="-1.1" x2="-10.3" y2="17.3"/>
					<line class="st1" x1="14.1" y1="-1.1" x2="-4.4" y2="17.3"/>
					<line class="st1" x1="19.9" y1="-1.1" x2="1.5" y2="17.3"/>
					<line class="st1" x1="25.9" y1="-1.1" x2="7.5" y2="17.3"/>
					<line class="st1" x1="31.8" y1="-1.1" x2="13.4" y2="17.3"/>
					<line class="st1" x1="37.8" y1="-1.1" x2="19.3" y2="17.3"/>
					<line class="st1" x1="43.6" y1="-1.1" x2="25.3" y2="17.3"/>
					<line class="st1" x1="49.6" y1="-1.1" x2="31.2" y2="17.3"/>
					<line class="st1" x1="55.5" y1="-1.1" x2="37.2" y2="17.3"/>
					<line class="st1" x1="61.5" y1="-1.1" x2="43" y2="17.3"/>
					<line class="st1" x1="67.4" y1="-1.1" x2="49" y2="17.3"/>
					<line class="st1" x1="73.3" y1="-1.1" x2="54.9" y2="17.3"/>
					<line class="st1" x1="79.3" y1="-1.1" x2="60.9" y2="17.3"/>
					<line class="st1" x1="85.2" y1="-1.1" x2="66.7" y2="17.3"/>
					<line class="st1" x1="91.1" y1="-1.1" x2="72.7" y2="17.3"/>
					<line class="st1" x1="97" y1="-1.1" x2="78.7" y2="17.3"/>
					<line class="st1" x1="103" y1="-1.1" x2="84.6" y2="17.3"/>
					<line class="st1" x1="108.9" y1="-1.1" x2="90.5" y2="17.3"/>
					<line class="st1" x1="114.8" y1="-1.1" x2="96.4" y2="17.3"/>
					<line class="st1" x1="120.8" y1="-1.1" x2="102.4" y2="17.3"/>
					<line class="st1" x1="126.7" y1="-1.1" x2="108.3" y2="17.3"/>
					<line class="st1" x1="132.7" y1="-1.1" x2="114.2" y2="17.3"/>
					<line class="st1" x1="138.5" y1="-1.1" x2="120.2" y2="17.3"/>
					<line class="st1" x1="144.5" y1="-1.1" x2="126.1" y2="17.3"/>
					<line class="st1" x1="150.4" y1="-1.1" x2="132.1" y2="17.3"/>
					<line class="st1" x1="156.4" y1="-1.1" x2="137.9" y2="17.3"/>
					<line class="st1" x1="162.2" y1="-1.1" x2="143.9" y2="17.3"/>
					<line class="st1" x1="168.2" y1="-1.1" x2="149.8" y2="17.3"/>
					<line class="st1" x1="174.2" y1="-1.1" x2="155.7" y2="17.3"/>
					<line class="st1" x1="180.1" y1="-1.1" x2="161.6" y2="17.3"/>
					<line class="st1" x1="186" y1="-1.1" x2="167.6" y2="17.3"/>
					<line class="st1" x1="191.9" y1="-1.1" x2="173.6" y2="17.3"/>
					<line class="st1" x1="197.9" y1="-1.1" x2="179.4" y2="17.3"/>
					<line class="st1" x1="203.7" y1="-1.1" x2="185.4" y2="17.3"/>
					<line class="st1" x1="209.7" y1="-1.1" x2="191.3" y2="17.3"/>
					<line class="st1" x1="215.7" y1="-1.1" x2="197.3" y2="17.3"/>
					<line class="st1" x1="221.6" y1="-1.1" x2="203.1" y2="17.3"/>
					<line class="st1" x1="227.5" y1="-1.1" x2="209.1" y2="17.3"/>
					<line class="st1" x1="233.4" y1="-1.1" x2="215" y2="17.3"/>
					<line class="st1" x1="239.4" y1="-1.1" x2="221" y2="17.3"/>
					<line class="st1" x1="245.3" y1="-1.1" x2="226.9" y2="17.3"/>
					<line class="st1" x1="251.2" y1="-1.1" x2="232.8" y2="17.3"/>
					<line class="st1" x1="257.1" y1="-1.1" x2="238.8" y2="17.3"/>
					<line class="st1" x1="263.1" y1="-1.1" x2="244.7" y2="17.3"/>
					<line class="st1" x1="269.1" y1="-1.1" x2="250.6" y2="17.3"/>
					<line class="st1" x1="274.9" y1="-1.1" x2="256.5" y2="17.3"/>
					<line class="st1" x1="280.9" y1="-1.1" x2="262.5" y2="17.3"/>
					<line class="st1" x1="286.8" y1="-1.1" x2="268.5" y2="17.3"/>
					<line class="st1" x1="292.8" y1="-1.1" x2="274.3" y2="17.3"/>
					<line class="st1" x1="298.6" y1="-1.1" x2="280.3" y2="17.3"/>
					<line class="st1" x1="304.6" y1="-1.1" x2="286.2" y2="17.3"/>
					<line class="st1" x1="310.5" y1="-1.1" x2="292.2" y2="17.3"/>
					<line class="st1" x1="316.5" y1="-1.1" x2="298" y2="17.3"/>
					<line class="st1" x1="322.4" y1="-1.1" x2="304" y2="17.3"/>
					<line class="st1" x1="328.3" y1="-1.1" x2="309.9" y2="17.3"/>
					<line class="st1" x1="334.3" y1="-1.1" x2="315.8" y2="17.3"/>
					<line class="st1" x1="340.2" y1="-1.1" x2="321.8" y2="17.3"/>
					<line class="st1" x1="346.1" y1="-1.1" x2="327.7" y2="17.3"/>
					<line class="st1" x1="352" y1="-1.1" x2="333.7" y2="17.3"/>
					<line class="st1" x1="358" y1="-1.1" x2="339.5" y2="17.3"/>
					<line class="st1" x1="363.9" y1="-1.1" x2="345.5" y2="17.3"/>
					<line class="st1" x1="369.8" y1="-1.1" x2="351.4" y2="17.3"/>
					<line class="st1" x1="375.8" y1="-1.1" x2="357.4" y2="17.3"/>
					<line class="st1" x1="381.7" y1="-1.1" x2="363.2" y2="17.3"/>
					<line class="st1" x1="387.6" y1="-1.1" x2="369.2" y2="17.3"/>
					<line class="st1" x1="393.5" y1="-1.1" x2="375.2" y2="17.3"/>
					<line class="st1" x1="399.5" y1="-1.1" x2="381.1" y2="17.3"/>
					<line class="st1" x1="405.4" y1="-1.1" x2="387" y2="17.3"/>
					<line class="st1" x1="411.3" y1="-1.1" x2="392.9" y2="17.3"/>
					<line class="st1" x1="417.3" y1="-1.1" x2="398.9" y2="17.3"/>
					<line class="st1" x1="423.2" y1="-1.1" x2="404.8" y2="17.3"/>
					<line class="st1" x1="429.2" y1="-1.1" x2="410.7" y2="17.3"/>
					<line class="st1" x1="435" y1="-1.1" x2="416.7" y2="17.3"/>
					<line class="st1" x1="441" y1="-1.1" x2="422.6" y2="17.3"/>
					<line class="st1" x1="446.9" y1="-1.1" x2="428.6" y2="17.3"/>
					<line class="st1" x1="452.9" y1="-1.1" x2="434.4" y2="17.3"/>
					<line class="st1" x1="458.7" y1="-1.1" x2="440.4" y2="17.3"/>
					<line class="st1" x1="464.7" y1="-1.1" x2="446.3" y2="17.3"/>
					<line class="st1" x1="470.7" y1="-1.1" x2="452.3" y2="17.3"/>
					<line class="st1" x1="476.6" y1="-1.1" x2="458.1" y2="17.3"/>
					<line class="st1" x1="482.5" y1="-1.1" x2="464.1" y2="17.3"/>
					<line class="st1" x1="488.4" y1="-1.1" x2="470.1" y2="17.3"/>
					<line class="st1" x1="494.4" y1="-1.1" x2="475.9" y2="17.3"/>
					<line class="st1" x1="500.3" y1="-1.1" x2="481.9" y2="17.3"/>
					<line class="st1" x1="506.2" y1="-1.1" x2="487.8" y2="17.3"/>
					<line class="st1" x1="512.2" y1="-1.1" x2="493.8" y2="17.3"/>
					<line class="st1" x1="518.1" y1="-1.1" x2="499.6" y2="17.3"/>
					<line class="st1" x1="524.1" y1="-1.1" x2="505.6" y2="17.3"/>
					<line class="st1" x1="529.9" y1="-1.1" x2="511.5" y2="17.3"/>
					<line class="st1" x1="535.9" y1="-1.1" x2="517.5" y2="17.3"/>
					<line class="st1" x1="541.8" y1="-1.1" x2="523.4" y2="17.3"/>
					<line class="st1" x1="547.7" y1="-1.1" x2="529.3" y2="17.3"/>
					<line class="st1" x1="553.6" y1="-1.1" x2="535.3" y2="17.3"/>
					<line class="st1" x1="559.6" y1="-1.1" x2="541.2" y2="17.3"/>
					<line class="st1" x1="565.6" y1="-1.1" x2="547.1" y2="17.3"/>
					<line class="st1" x1="571.4" y1="-1.1" x2="553" y2="17.3"/>
					<line class="st1" x1="577.4" y1="-1.1" x2="559" y2="17.3"/>
					<line class="st1" x1="583.3" y1="-1.1" x2="565" y2="17.3"/>
					<line class="st1" x1="589.3" y1="-1.1" x2="570.8" y2="17.3"/>
					<line class="st1" x1="595.1" y1="-1.1" x2="576.8" y2="17.3"/>
					<line class="st1" x1="601.1" y1="-1.1" x2="582.7" y2="17.3"/>
					<line class="st1" x1="607" y1="-1.1" x2="588.7" y2="17.3"/>
					<line class="st1" x1="613" y1="-1.1" x2="594.5" y2="17.3"/>
					<line class="st1" x1="618.9" y1="-1.1" x2="600.5" y2="17.3"/>
					<line class="st1" x1="624.8" y1="-1.1" x2="606.4" y2="17.3"/>
					<line class="st1" x1="630.8" y1="-1.1" x2="612.4" y2="17.3"/>
					<line class="st1" x1="636.7" y1="-1.1" x2="618.3" y2="17.3"/>
					<line class="st1" x1="642.6" y1="-1.1" x2="624.2" y2="17.3"/>
					<line class="st1" x1="648.5" y1="-1.1" x2="630.2" y2="17.3"/>
					<line class="st1" x1="654.5" y1="-1.1" x2="636.1" y2="17.3"/>
					<line class="st1" x1="660.5" y1="-1.1" x2="642" y2="17.3"/>
					<line class="st1" x1="666.3" y1="-1.1" x2="647.9" y2="17.3"/>
					<line class="st1" x1="672.3" y1="-1.1" x2="653.9" y2="17.3"/>
					<line class="st1" x1="678.2" y1="-1.1" x2="659.7" y2="17.3"/>
					<line class="st1" x1="684.2" y1="-1.1" x2="665.7" y2="17.3"/>
					<line class="st1" x1="690" y1="-1.1" x2="671.7" y2="17.3"/>
					<line class="st1" x1="696" y1="-1.1" x2="677.6" y2="17.3"/>
					<line class="st1" x1="701.9" y1="-1.1" x2="683.5" y2="17.3"/>
					<line class="st1" x1="707.8" y1="-1.1" x2="689.4" y2="17.3"/>
					<line class="st1" x1="713.8" y1="-1.1" x2="695.4" y2="17.3"/>
					<line class="st1" x1="719.7" y1="-1.1" x2="701.3" y2="17.3"/>
					<line class="st1" x1="725.7" y1="-1.1" x2="707.2" y2="17.3"/>
					<line class="st1" x1="731.5" y1="-1.1" x2="713.2" y2="17.3"/>
					<line class="st1" x1="737.5" y1="-1.1" x2="719.1" y2="17.3"/>
					<line class="st1" x1="743.4" y1="-1.1" x2="725.1" y2="17.3"/>
					<line class="st1" x1="749.4" y1="-1.1" x2="730.9" y2="17.3"/>
					<line class="st1" x1="755.2" y1="-1.1" x2="736.9" y2="17.3"/>
					<line class="st1" x1="761.2" y1="-1.1" x2="742.8" y2="17.3"/>
					<line class="st1" x1="767.2" y1="-1.1" x2="748.8" y2="17.3"/>
					<line class="st1" x1="773.1" y1="-1.1" x2="754.6" y2="17.3"/>
					<line class="st1" x1="779" y1="-1.1" x2="760.6" y2="17.3"/>
					<line class="st1" x1="784.9" y1="-1.1" x2="766.6" y2="17.3"/>
					<line class="st1" x1="790.9" y1="-1.1" x2="772.5" y2="17.3"/>
					<line class="st1" x1="796.8" y1="-1.1" x2="778.4" y2="17.3"/>
					<line class="st1" x1="802.7" y1="-1.1" x2="784.3" y2="17.3"/>
					<line class="st1" x1="808.7" y1="-1.1" x2="790.3" y2="17.3"/>
					<line class="st1" x1="814.6" y1="-1.1" x2="796.2" y2="17.3"/>
					<line class="st1" x1="814.6" y1="-1.1" x2="796.2" y2="17.3"/>
					<line class="st1" x1="820.6" y1="-1.1" x2="802.2" y2="17.3"/>
					<line class="st1" x1="820.5" y1="-1.1" x2="802.1" y2="17.3"/>
					<line class="st1" x1="826.5" y1="-1.1" x2="808.1" y2="17.3"/>
					<line class="st1" x1="826.5" y1="-1.1" x2="808.1" y2="17.3"/>
					<line class="st1" x1="832.5" y1="-1.1" x2="814.1" y2="17.3"/>
					<line class="st1" x1="832.4" y1="-1.1" x2="814" y2="17.3"/>
					<line class="st1" x1="838.4" y1="-1.1" x2="820" y2="17.3"/>
					<line class="st1" x1="838.4" y1="-1.1" x2="820" y2="17.3"/>
					<line class="st1" x1="844.4" y1="-1.1" x2="826" y2="17.3"/>
					<line class="st1" x1="844.3" y1="-1.1" x2="825.9" y2="17.3"/>
					<line class="st1" x1="850.3" y1="-1.1" x2="831.9" y2="17.3"/>
					<line class="st1" x1="850.3" y1="-1.1" x2="831.9" y2="17.3"/>
					<line class="st1" x1="856.3" y1="-1.1" x2="837.9" y2="17.3"/>
					<line class="st1" x1="862.4" y1="-1.1" x2="844" y2="17.3"/>
					<line class="st1" x1="868.4" y1="-1.1" x2="850" y2="17.3"/>
				</g>
			</g>
		</g>
	</g>
</g>
</svg>
