<?xml version="1.0" encoding="utf-8"?>
<!-- Generator: Adobe Illustrator 24.0.3, SVG Export Plug-In . SVG Version: 6.00 Build 0)  -->
<svg version="1.1" id="Layer_1" xmlns="http://www.w3.org/2000/svg" xmlns:xlink="http://www.w3.org/1999/xlink" x="0px" y="0px"
	 viewBox="0 0 302 900" style="enable-background:new 0 0 302 900;" xml:space="preserve">
<style type="text/css">
	.st0{fill:#CCCCCC;}
	.st1{fill:#00BBDD;}
	.st2{fill:#333333;}
	.st3{fill:#8DE1FF;}
	.st4{fill:#FFFFFF;}
	.st5{fill:#666666;}
	.st6{fill:#007990;}
</style>
<g>
	<g>
		<polygon class="st0" points="5.4,409 0.4,409.1 0,403.8 5.4,404.3 		"/>
	</g>
	<g>
		<polygon class="st0" points="20.5,412 15.4,408.3 18.6,403.1 23.3,406.7 		"/>
	</g>
	<g>
		<polygon class="st0" points="66.1,410.4 60.5,407.1 63.9,402.1 69.3,405 		"/>
	</g>
	<g>
		<polygon class="st0" points="45.8,409.9 37.6,408.8 37,401.3 45.1,401.6 		"/>
	</g>
	<g>
		<polygon class="st0" points="92.2,407.5 84.3,407.8 82.6,401.8 89.2,400 		"/>
	</g>
	<g>
		<polygon class="st0" points="107.2,409.3 100.7,409 101.2,403.6 106.8,403.1 		"/>
	</g>
	<g>
		<polygon class="st0" points="132.5,409.8 124.7,410.4 125.6,403 132.5,403.1 		"/>
	</g>
	<g>
		<polygon class="st0" points="155,407.9 149.7,407.8 148.7,401.8 154.9,402.8 		"/>
	</g>
</g>
<polygon class="st1" points="100,35.8 0,36 0.8,2.7 98.5,0 "/>
<g>
	<polygon class="st0" points="13.4,800 5.1,807 0,817.6 1.3,844.1 15.6,844.1 17.7,824 8.3,824 9.9,813.6 17.7,805.5 	"/>
	<polygon class="st0" points="35.4,801.9 25,812.1 23.1,827.3 23.1,844.1 40,844.1 38.7,824 31.1,823.5 32.2,814.8 39.5,808.9 	"/>
</g>
<g>
	<g>
		<polygon class="st1" points="290.9,347.3 12.1,350.2 9.1,308.4 295,300 		"/>
		<polygon class="st2" points="299.7,349.2 7.1,350.2 0,307.8 302,307.8 		"/>
	</g>
	<g>
		<polygon class="st3" points="281,322.9 274.8,318.1 279.8,312.1 286,316.9 		"/>
		<polygon class="st3" points="285,329.2 283.7,324.4 288.6,323.1 289.9,327.9 		"/>
	</g>
</g>
<g>
	<polygon class="st3" points="12.4,215.8 21.1,208.8 14.1,200 5.5,207 	"/>
	<polygon class="st3" points="6.9,225 8.7,218 1.8,216.1 0,223.1 	"/>
</g>
<polygon class="st4" points="220,139 5.5,139 0,100 220,103.9 "/>
<polygon class="st5" points="220,739 5.5,739 0,700 220,703.9 "/>
<polygon class="st2" points="224.5,546.1 6.2,538.5 7.2,500 225.5,507.7 "/>
<polygon class="st6" points="236.4,554.1 17.9,553.8 17.9,515.4 236.4,515.7 "/>
<polygon class="st1" points="236.6,507.1 0,506.6 0,560.4 231.5,547.7 "/>
<g>
	
		<rect x="228.3" y="510.7" transform="matrix(0.625 -0.7806 0.7806 0.625 -315.4917 376.6498)" class="st3" width="12" height="12"/>
	
		<rect x="239.9" y="526.4" transform="matrix(0.9664 -0.2572 0.2572 0.9664 -128.1916 80.5482)" class="st3" width="7.8" height="7.8"/>
</g>
<polygon class="st2" points="224.5,646.1 6.2,638.5 7.2,600 225.5,607.7 "/>
<polygon class="st1" points="236.4,654.1 17.9,653.8 17.9,615.4 236.4,615.7 "/>
<polygon class="st6" points="236.6,607.1 0,606.6 0,660.4 231.5,647.7 "/>
<g>
	
		<rect x="228.2" y="610.6" transform="matrix(0.625 -0.7806 0.7806 0.625 -393.5118 413.9973)" class="st3" width="12" height="12"/>
	
		<rect x="239.9" y="626.4" transform="matrix(0.9664 -0.2572 0.2572 0.9664 -153.9108 83.9133)" class="st3" width="7.8" height="7.8"/>
</g>
</svg>
